# xmcd
#
# Track frame offsets: 
#        150
#        13869
#        27071
#        40759
#        55021
#        67647
#        81099
#        93561
#        106763
#        120094
#        132904
#        145617
#        158392
#        171912
#        184941
#
# Disc length: 2643 seconds
#
# Revision: 2
# Processed by: cddbd v1.5.2PL0 Copyright (c) Steve Scherf et al.
# Submitted via: ExactAudioCopyFreeDBPlugin 1.0
#
DISCID=aa0a510f
DTITLE=Sonny Boy Williamson - Father of Blues Harmonica
DYEAR=1939
DGENRE=Blues
TTITLE0=Honey Bee Blues
TTITLE1=Whiskey Headed Blues
TTITLE2=Lord, Oh Lord Blues
TTITLE3=Goodbye Red
TTITLE4=Good Gravy
TTITLE5=T.B. Blues
TTITLE6=Good Gal Blues
TTITLE7=Thinking My Blues Away
TTITLE8=Miss Ida Lee
TTITLE9=Tell Me, Baby
TTITLE10=I Been Dealing With The Devil
TTITLE11=Welfare Store Blues
TTITLE12=My Little Machine
TTITLE13=Jivin' The Blues
TTITLE14=Shotgun Blues
EXTD=This is the wrong cd number. This cd is cd2 not cd 1.Sonny Boy Wi
EXTD=lliamson\nFather of the Blues 3 cd set
EXTT0=
EXTT1=
EXTT2=
EXTT3=
EXTT4=
EXTT5=
EXTT6=
EXTT7=
EXTT8=
EXTT9=
EXTT10=
EXTT11=
EXTT12=
EXTT13=
EXTT14=
PLAYORDER=
